<!-- Polindora panel logo — Premium Tomato Timer -->
<svg xmlns="http://www.w3.org/2000/svg" viewBox="0 0 256 256" fill="currentColor">
  <!-- Leaf top -->
  <path d="M128,12 a28,28 0 0,0 -28,28 a28,28 0 0,0 28,28 a28,28 0 0,0 28,-28 a28,28 0 0,0 -28,-28Z" />
  <path d="M100,40 a32,32 0 0,0 -48,16 a32,32 0 0,0 48,16 Z" />
  <path d="M156,40 a32,32 0 0,1 48,16 a32,32 0 0,1 -48,16 Z" />
  
  <!-- Tomato Body & Timer -->
  <path d="M128,64 C56,64 24,104 24,160 C24,224 72,248 128,248 C184,248 232,224 232,160 C232,104 200,64 128,64 Z m0,164 C84.4,228 44,206.4 44,160 C44,115.6 84.4,84 128,84 C171.6,84 212,115.6 212,160 C212,206.4 171.6,228 128,228 Z" />
  
  <!-- Clock Hands -->
  <path d="M128,100 a8,8 0 0,0 -8,8 v46 l-26,26 a8,8 0 0,0 11.3,11.3 l28.7,-28.7 a8,8 0 0,0 2.3,-5.6 v-51 a8,8 0 0,0 -8,-8 Z" />
</svg>
